<?xml version="1.0" encoding="UTF-8"?>
<svg width="35px" height="39px" viewBox="0 0 35 39" version="1.1" xmlns="http://www.w3.org/2000/svg" xmlns:xlink="http://www.w3.org/1999/xlink">
    <title>logo.top</title>
    <defs>
        <linearGradient x1="49.9999885%" y1="98.082503%" x2="49.9999885%" y2="0.766550128%" id="linearGradient-1">
            <stop stop-color="#ED1C23" offset="0%"></stop>
            <stop stop-color="#FBAF3B" offset="100%"></stop>
        </linearGradient>
    </defs>
    <g id="定稿" stroke="none" stroke-width="1" fill="none" fill-rule="evenodd">
        <g id="MemFire备份-2" transform="translate(-917.000000, -401.000000)">
            <g id="MemFireDB" transform="translate(917.000000, 401.000000)">
                <polygon id="Fill-1" fill="#F9AE7C" points="9.04411926 14.2040912 16.5147003 0.00206084995 0.402024267 9.30481678"></polygon>
                <polygon id="Fill-3" fill="#F9AE7C" points="33.9234925 9.30663984 17.8036827 0.000317053838 25.2191757 14.2193891"></polygon>
                <polygon id="Fill-5" fill="#F9904A" points="8.64780196 14.890275 0.000158526919 9.98783001 0.000158526919 28.6095909"></polygon>
                <polygon id="Fill-7" fill="url(#linearGradient-1)" points="9.63280898 14.7873514 17.1596671 37.9731022 24.6290592 14.8016188 17.1592708 0.478711664"></polygon>
                <polygon id="Fill-9" fill="#F9904A" points="34.3221084 9.99207061 25.6154137 14.9052161 34.3221084 28.6134352"></polygon>
                <polygon id="Fill-13" fill="#FB6D33" points="25.1754619 15.6910737 17.6723828 38.9652033 33.9784617 29.5510823"></polygon>
                <polygon id="Fill-15" fill="#FB6D33" points="9.08862569 15.6775197 0.343884519 29.551003 16.6479818 38.9647278"></polygon>
                <path d="M20.9185385,13.4087617 C20.6549875,12.4207426 19.8643345,11.6134443 19.8643345,11.6134443 C19.8643345,11.6134443 19.876224,12.4956466 19.6007835,13.0627767 C19.3205872,13.6394183 18.7605908,14.034943 18.7605908,14.034943 C18.7605908,14.034943 19.5353911,11.7989208 18.8981129,10.4898848 C18.1161789,8.88202549 17.1241967,8.12585208 17.1241967,8.12585208 C17.1241967,8.12585208 17.4479879,9.79593317 16.9315865,10.971014 C16.4243003,12.1270715 14.9056125,12.7885251 14.1807481,13.4804951 C13.6453235,13.9909518 13.2604994,14.997994 13.095235,15.4902201 C13.0829492,15.526285 13.078986,15.5623499 13.0766081,15.5980184 C13.0873087,15.3150479 13.1935217,13.8597707 14.2647674,13.0334492 C15.2658649,12.2610268 14.3614688,10.567563 14.3614688,10.567563 C14.3614688,10.567563 14.5279221,11.3391927 14.2746753,11.8880922 C14.0210323,12.4365953 13.482437,12.7433449 13.237513,13.3223645 C13.0191421,13.8383696 13.0651149,15.3713249 13.0738339,15.6142674 C13.0738339,15.6206085 13.0746265,15.6265533 13.0746265,15.6321017 C13.0746265,15.6439912 13.0750229,15.6507286 13.0750229,15.6507286 L13.0750229,15.6388391 C13.0785897,15.7620938 13.1324889,15.8813853 13.2311719,15.9638193 L16.843604,19.3761112 C17.0060941,19.5112554 17.2422993,19.5116517 17.4051857,19.3773002 L21.0996555,15.9170538 C21.2074538,15.8278824 21.2661088,15.6935309 21.2569935,15.5532346 C21.2252881,15.0526858 21.0913328,14.0571368 20.9185385,13.4087617" id="Fill-17" fill="#FFFFFF"></path>
            </g>
        </g>
    </g>
</svg>