<svg id="svg" version="1.1" xmlns="http://www.w3.org/2000/svg" xmlns:xlink="http://www.w3.org/1999/xlink" width="400" height="400" viewBox="0, 0, 400,400"><g id="svgg"><path id="path0" d="M208.898 107.100 L 209.000 145.800 215.013 149.800 C 218.320 152.000,224.440 156.034,228.613 158.764 C 232.786 161.494,238.180 165.024,240.600 166.607 C 247.696 171.249,258.953 178.646,265.200 182.770 C 268.390 184.877,271.179 186.675,271.398 186.766 C 271.617 186.857,272.650 187.532,273.694 188.266 C 274.738 189.000,275.746 189.600,275.934 189.600 C 276.476 189.600,277.600 191.002,277.600 191.678 C 277.600 192.031,274.669 194.233,270.721 196.847 C 266.937 199.351,256.774 206.080,248.135 211.800 C 239.496 217.520,227.337 225.516,221.114 229.569 C 214.891 233.621,209.575 237.211,209.300 237.545 C 208.544 238.464,208.570 314.737,209.327 315.027 C 209.617 315.139,212.542 313.453,215.827 311.281 C 219.112 309.110,224.230 305.748,227.200 303.811 C 230.170 301.873,234.580 298.989,237.000 297.401 C 239.420 295.813,243.470 293.165,246.000 291.517 C 248.530 289.870,253.840 286.397,257.800 283.800 C 261.760 281.203,266.530 278.085,268.400 276.871 C 270.270 275.656,274.320 273.013,277.400 270.997 C 280.480 268.982,285.430 265.747,288.400 263.808 C 291.370 261.869,296.050 258.806,298.800 257.000 C 301.550 255.194,305.870 252.368,308.400 250.718 C 310.930 249.069,315.970 245.773,319.600 243.394 C 323.230 241.015,328.540 237.548,331.400 235.689 C 334.260 233.830,337.005 231.938,337.500 231.485 L 338.400 230.661 338.400 191.532 L 338.400 152.403 333.100 148.936 C 330.185 147.030,325.010 143.639,321.600 141.402 C 318.190 139.164,312.970 135.742,310.000 133.796 C 305.430 130.803,301.781 128.415,288.000 119.400 C 287.230 118.896,283.090 116.186,278.800 113.378 C 274.510 110.570,268.930 106.921,266.400 105.270 C 263.870 103.619,258.470 100.087,254.400 97.420 C 250.330 94.754,244.794 91.139,242.097 89.387 C 239.400 87.634,233.820 83.984,229.697 81.276 C 213.172 70.423,209.984 68.400,209.402 68.400 C 208.864 68.400,208.807 72.741,208.898 107.100 M122.804 193.507 C 123.796 194.108,126.561 195.905,128.948 197.500 C 131.335 199.095,133.421 200.400,133.582 200.400 C 133.744 200.400,134.202 200.760,134.600 201.200 C 134.998 201.640,135.465 202.000,135.637 202.000 C 135.810 202.000,137.964 203.358,140.425 205.017 C 142.886 206.676,144.969 207.965,145.053 207.880 C 145.280 207.653,122.039 192.399,121.478 192.407 C 121.215 192.411,121.812 192.906,122.804 193.507 M287.314 197.860 C 298.036 204.919,304.494 209.146,308.000 211.400 C 309.650 212.461,314.870 215.877,319.600 218.991 C 324.330 222.106,329.370 225.395,330.800 226.301 C 335.013 228.968,336.877 230.483,336.460 230.900 C 336.224 231.136,335.582 231.042,334.742 230.648 C 334.004 230.303,331.060 229.463,328.200 228.782 C 323.284 227.612,312.666 225.067,307.400 223.796 C 306.080 223.477,302.300 222.581,299.000 221.803 C 295.700 221.026,292.010 220.140,290.800 219.834 C 287.888 219.098,285.246 218.461,281.600 217.616 C 278.518 216.902,261.286 212.770,257.000 211.717 C 255.680 211.393,253.925 211.035,253.100 210.922 C 251.053 210.641,251.225 210.047,253.832 208.400 C 256.272 206.858,257.395 206.129,258.840 205.149 C 259.834 204.476,265.311 200.912,266.443 200.203 C 267.197 199.730,269.260 198.377,274.155 195.147 C 278.815 192.070,278.383 191.981,287.314 197.860 M145.600 208.146 C 145.600 208.256,146.140 208.730,146.800 209.200 C 147.460 209.670,148.000 209.964,148.000 209.854 C 148.000 209.744,147.460 209.270,146.800 208.800 C 146.140 208.330,145.600 208.036,145.600 208.146 " stroke="none" fill="#c82a8b" fill-rule="evenodd"></path><path id="path1" d="M0.000 200.000 L 0.000 400.000 200.000 400.000 L 400.000 400.000 400.000 200.000 L 400.000 0.000 200.000 0.000 L 0.000 0.000 0.000 200.000 M216.104 72.376 C 219.457 74.563,225.574 78.568,229.697 81.276 C 233.820 83.984,239.400 87.634,242.097 89.387 C 244.794 91.139,250.330 94.754,254.400 97.420 C 258.470 100.087,263.870 103.619,266.400 105.270 C 268.930 106.921,274.510 110.570,278.800 113.378 C 283.090 116.186,287.230 118.896,288.000 119.400 C 301.781 128.415,305.430 130.803,310.000 133.796 C 312.970 135.742,318.190 139.164,321.600 141.402 C 325.010 143.639,330.185 147.030,333.100 148.936 L 338.400 152.403 338.400 191.532 L 338.400 230.661 337.500 231.485 C 337.005 231.938,334.260 233.830,331.400 235.689 C 328.540 237.548,323.230 241.015,319.600 243.394 C 315.970 245.773,310.930 249.069,308.400 250.718 C 305.870 252.368,301.550 255.194,298.800 257.000 C 296.050 258.806,291.370 261.869,288.400 263.808 C 285.430 265.747,280.480 268.982,277.400 270.997 C 274.320 273.013,270.270 275.656,268.400 276.871 C 266.530 278.085,261.760 281.203,257.800 283.800 C 253.840 286.397,248.530 289.870,246.000 291.517 C 243.470 293.165,239.420 295.813,237.000 297.401 C 234.580 298.989,230.170 301.873,227.200 303.811 C 224.230 305.748,219.112 309.110,215.827 311.281 C 212.542 313.453,209.617 315.139,209.327 315.027 C 208.740 314.802,208.527 238.649,209.110 237.732 C 209.274 237.475,214.446 233.960,220.604 229.922 C 240.884 216.623,250.986 209.958,252.000 209.205 C 252.550 208.797,258.535 204.830,265.300 200.388 C 272.735 195.506,277.600 192.065,277.600 191.688 C 277.600 191.004,276.480 189.600,275.934 189.600 C 275.746 189.600,274.738 189.000,273.694 188.266 C 272.650 187.532,271.617 186.857,271.398 186.766 C 271.179 186.675,268.390 184.877,265.200 182.770 C 258.953 178.646,247.696 171.249,240.600 166.607 C 238.180 165.024,232.786 161.494,228.613 158.764 C 224.440 156.034,218.320 152.000,215.013 149.800 L 209.000 145.800 208.898 107.100 C 208.807 72.741,208.864 68.400,209.402 68.400 C 209.736 68.400,212.752 70.189,216.104 72.376 M190.000 107.395 C 190.000 142.812,189.957 145.186,189.300 145.844 C 188.570 146.575,182.652 150.581,180.842 151.569 C 180.269 151.881,177.100 153.954,173.800 156.174 C 170.500 158.394,166.090 161.278,164.000 162.584 C 161.910 163.890,159.480 165.480,158.600 166.117 C 157.720 166.755,154.210 169.052,150.800 171.223 C 147.390 173.393,143.250 176.093,141.600 177.223 C 139.026 178.985,129.932 184.997,128.028 186.195 C 127.683 186.413,126.487 187.166,125.370 187.870 C 124.254 188.574,122.857 189.271,122.266 189.419 C 119.381 190.143,120.600 191.410,130.381 197.851 C 135.016 200.903,144.792 207.360,152.106 212.200 C 159.420 217.040,170.238 224.150,176.145 228.000 C 188.553 236.086,190.592 237.582,190.948 238.865 C 191.270 240.023,190.870 313.751,190.537 314.619 C 190.176 315.561,190.893 315.969,177.600 307.264 C 168.217 301.119,159.312 295.300,154.622 292.249 C 145.686 286.434,130.279 276.353,115.400 266.583 C 110.120 263.117,104.270 259.287,102.400 258.074 C 99.083 255.921,95.778 253.760,80.213 243.568 C 76.041 240.836,70.191 236.973,67.213 234.984 L 61.800 231.367 61.698 192.078 L 61.596 152.789 66.298 149.724 C 73.541 145.001,82.116 139.419,87.300 136.052 C 89.884 134.374,95.284 130.835,99.300 128.189 C 103.315 125.543,108.310 122.314,110.400 121.014 C 112.490 119.714,114.380 118.451,114.600 118.208 C 114.820 117.965,115.720 117.335,116.600 116.807 C 118.623 115.595,126.696 110.317,139.000 102.162 C 144.280 98.663,148.753 95.734,148.939 95.654 C 149.405 95.453,168.690 82.904,172.400 80.388 C 174.050 79.269,177.650 76.932,180.400 75.195 C 183.150 73.458,186.275 71.400,187.345 70.623 C 188.415 69.845,189.450 69.307,189.645 69.428 C 189.848 69.553,190.000 85.848,190.000 107.395 " stroke="none" fill="#fbfbfb" fill-rule="evenodd"></path><path id="path2" d="M187.345 70.623 C 186.275 71.400,183.150 73.458,180.400 75.195 C 177.650 76.932,174.050 79.269,172.400 80.388 C 168.690 82.904,149.405 95.453,148.939 95.654 C 148.753 95.734,144.280 98.663,139.000 102.162 C 126.696 110.317,118.623 115.595,116.600 116.807 C 115.720 117.335,114.820 117.965,114.600 118.208 C 114.380 118.451,112.490 119.714,110.400 121.014 C 108.310 122.314,103.315 125.543,99.300 128.189 C 95.284 130.835,89.884 134.374,87.300 136.052 C 82.116 139.419,73.541 145.001,66.298 149.724 L 61.596 152.789 61.698 192.078 L 61.800 231.367 67.213 234.984 C 70.191 236.973,76.041 240.836,80.213 243.568 C 95.778 253.760,99.083 255.921,102.400 258.074 C 104.270 259.287,110.120 263.117,115.400 266.583 C 130.279 276.353,145.686 286.434,154.622 292.249 C 159.312 295.300,168.217 301.119,177.600 307.264 C 190.894 315.969,190.176 315.561,190.538 314.618 C 190.994 313.430,191.273 239.108,190.820 239.387 C 190.531 239.566,190.400 251.319,190.400 277.000 C 190.400 297.544,190.265 314.436,190.100 314.537 C 189.935 314.639,188.900 314.135,187.800 313.418 C 186.700 312.700,183.370 310.533,180.400 308.601 C 174.211 304.575,170.026 301.840,161.000 295.920 C 154.666 291.765,143.825 284.675,138.800 281.402 C 137.370 280.470,132.420 277.208,127.800 274.154 C 123.180 271.099,119.220 268.510,119.000 268.400 C 118.780 268.290,117.250 267.314,115.600 266.232 C 113.950 265.149,110.530 262.914,108.000 261.264 C 105.470 259.615,100.520 256.375,97.000 254.066 C 93.480 251.756,87.990 248.161,84.800 246.076 C 81.610 243.991,77.476 241.276,75.613 240.043 C 73.751 238.809,72.041 237.710,71.813 237.600 C 66.102 234.837,60.815 229.808,63.000 229.216 C 63.440 229.097,64.520 228.490,65.400 227.867 C 66.994 226.739,78.798 218.967,85.222 214.817 C 87.080 213.617,92.290 210.219,96.800 207.266 C 101.310 204.313,107.700 200.135,111.000 197.981 C 114.300 195.826,117.782 193.491,118.738 192.790 C 120.007 191.861,120.596 191.636,120.918 191.958 C 121.728 192.768,122.027 192.413,121.375 191.418 C 120.610 190.250,120.819 189.782,122.266 189.419 C 122.857 189.271,124.254 188.574,125.370 187.870 C 126.487 187.166,127.683 186.413,128.028 186.195 C 129.932 184.997,139.026 178.985,141.600 177.223 C 143.250 176.093,147.390 173.393,150.800 171.223 C 154.210 169.052,157.720 166.755,158.600 166.117 C 159.480 165.480,161.910 163.890,164.000 162.584 C 166.090 161.278,170.500 158.394,173.800 156.174 C 177.100 153.954,180.269 151.881,180.842 151.569 C 182.652 150.581,188.570 146.575,189.300 145.844 C 190.080 145.063,190.419 69.906,189.645 69.428 C 189.450 69.307,188.415 69.845,187.345 70.623 M147.937 209.715 C 148.416 210.300,152.330 213.085,153.397 213.600 C 153.625 213.710,155.699 215.048,158.006 216.574 C 160.312 218.100,166.160 221.944,171.000 225.118 C 175.840 228.291,181.386 231.948,183.324 233.244 C 185.262 234.540,186.987 235.600,187.157 235.600 C 187.328 235.600,188.217 236.292,189.133 237.139 C 190.050 237.985,190.800 238.529,190.800 238.348 C 190.800 237.821,187.354 235.315,180.336 230.737 C 168.162 222.797,155.818 214.693,151.600 211.870 C 149.290 210.324,147.642 209.354,147.937 209.715 " stroke="none" fill="#fbb342" fill-rule="evenodd"></path><path id="path3" d="M116.383 195.271 C 114.302 196.629,110.350 199.213,107.600 201.012 C 104.850 202.811,100.260 205.811,97.400 207.678 C 82.512 217.398,77.590 220.625,75.487 222.042 C 74.216 222.899,73.057 223.600,72.913 223.600 C 72.769 223.600,72.280 223.929,71.826 224.330 C 71.372 224.732,69.642 225.891,67.983 226.907 C 65.236 228.588,63.047 230.400,63.763 230.400 C 63.921 230.400,64.894 230.148,65.925 229.841 C 68.701 229.012,72.047 228.165,77.200 226.986 C 79.730 226.407,82.700 225.692,83.800 225.396 C 84.900 225.101,87.510 224.474,89.600 224.003 C 91.690 223.531,94.390 222.900,95.600 222.600 C 96.810 222.300,98.970 221.777,100.400 221.438 C 101.830 221.098,105.970 220.103,109.600 219.226 C 113.230 218.349,118.540 217.100,121.400 216.450 C 124.260 215.801,128.310 214.835,130.400 214.303 C 132.490 213.771,136.000 212.921,138.200 212.414 C 140.400 211.907,142.997 211.246,143.971 210.946 C 144.945 210.646,146.160 210.400,146.671 210.400 C 147.182 210.400,147.600 210.254,147.600 210.075 C 147.600 209.761,145.428 208.000,145.041 208.000 C 144.936 208.000,142.847 206.650,140.400 205.000 C 137.953 203.350,135.810 202.000,135.637 202.000 C 135.465 202.000,134.998 201.640,134.600 201.200 C 134.202 200.760,133.743 200.400,133.579 200.400 C 133.416 200.400,130.707 198.690,127.558 196.600 C 120.778 192.099,121.169 192.146,116.383 195.271 M274.155 195.147 C 269.260 198.377,267.197 199.730,266.443 200.203 C 265.311 200.912,259.834 204.476,258.840 205.149 C 257.395 206.129,256.272 206.858,253.832 208.400 C 251.225 210.047,251.053 210.641,253.100 210.922 C 253.925 211.035,255.680 211.393,257.000 211.717 C 261.286 212.770,278.518 216.902,281.600 217.616 C 285.246 218.461,287.888 219.098,290.800 219.834 C 292.010 220.140,295.700 221.026,299.000 221.803 C 302.300 222.581,306.080 223.477,307.400 223.796 C 312.666 225.067,323.284 227.612,328.200 228.782 C 331.060 229.463,334.004 230.303,334.742 230.648 C 335.582 231.042,336.224 231.136,336.460 230.900 C 336.877 230.483,335.013 228.968,330.800 226.301 C 329.370 225.395,324.330 222.106,319.600 218.991 C 314.870 215.877,309.650 212.461,308.000 211.400 C 304.494 209.146,298.036 204.919,287.314 197.860 C 278.383 191.981,278.815 192.070,274.155 195.147 " stroke="none" fill="#30111a" fill-rule="evenodd"></path><path id="path4" d="M118.521 192.922 C 117.597 193.625,114.177 195.931,110.921 198.048 C 107.664 200.164,101.310 204.312,96.800 207.265 C 92.290 210.218,87.080 213.617,85.222 214.817 C 78.798 218.967,66.994 226.739,65.400 227.867 C 64.520 228.490,63.440 229.097,63.000 229.216 C 60.815 229.808,66.102 234.837,71.813 237.600 C 72.041 237.710,73.751 238.809,75.613 240.043 C 77.476 241.276,81.610 243.991,84.800 246.076 C 87.990 248.161,93.480 251.756,97.000 254.066 C 100.520 256.375,105.470 259.615,108.000 261.264 C 110.530 262.914,113.950 265.149,115.600 266.232 C 117.250 267.314,118.780 268.290,119.000 268.400 C 119.220 268.510,123.180 271.099,127.800 274.154 C 132.420 277.208,137.370 280.470,138.800 281.402 C 143.825 284.675,154.666 291.765,161.000 295.920 C 170.026 301.840,174.211 304.575,180.400 308.601 C 183.370 310.533,186.700 312.704,187.800 313.425 C 188.900 314.146,189.932 314.610,190.094 314.454 C 190.256 314.299,190.399 297.078,190.411 276.186 L 190.434 238.200 188.917 236.906 C 188.083 236.194,187.276 235.609,187.124 235.606 C 186.972 235.603,185.262 234.540,183.324 233.244 C 181.386 231.948,175.750 228.234,170.800 224.991 C 165.850 221.748,159.938 217.858,157.661 216.347 C 155.385 214.836,153.449 213.600,153.359 213.600 C 153.270 213.600,152.063 212.808,150.677 211.839 C 147.954 209.936,147.805 209.921,143.400 211.115 C 142.520 211.354,140.270 211.911,138.400 212.355 C 136.530 212.798,133.110 213.635,130.800 214.213 C 128.490 214.792,124.260 215.798,121.400 216.449 C 118.540 217.099,113.230 218.349,109.600 219.226 C 105.970 220.103,101.830 221.098,100.400 221.438 C 98.970 221.777,96.810 222.300,95.600 222.600 C 94.390 222.900,91.690 223.531,89.600 224.003 C 87.510 224.474,84.900 225.101,83.800 225.396 C 82.700 225.692,79.730 226.407,77.200 226.986 C 72.047 228.165,68.701 229.012,65.925 229.841 C 64.894 230.148,63.921 230.400,63.763 230.400 C 63.047 230.400,65.236 228.588,67.983 226.907 C 69.642 225.891,71.372 224.732,71.826 224.330 C 72.280 223.929,72.769 223.600,72.913 223.600 C 73.057 223.600,74.216 222.899,75.487 222.042 C 77.590 220.625,82.512 217.398,97.400 207.678 C 100.260 205.811,104.850 202.811,107.600 201.012 C 110.350 199.213,114.302 196.629,116.383 195.271 C 118.464 193.912,120.414 192.800,120.717 192.800 C 121.311 192.800,121.192 191.917,120.575 191.747 C 120.369 191.690,119.444 192.219,118.521 192.922 " stroke="none" fill="#f25a2a" fill-rule="evenodd"></path></g></svg>