<svg width="48" height="48" viewBox="0 0 48 48" fill="none" xmlns="http://www.w3.org/2000/svg">
<path d="M14.446 42C22.95 42 28.482 37.56 28.482 30.88C28.482 25.7 25.118 22.408 19.102 21.044L15.242 19.902C11.854 19.152 9.876 18.252 10.342 15.952C10.73 14.038 11.888 12.958 14.586 12.958C23.156 12.958 26.332 15.952 26.332 15.952V8.752C26.332 8.752 23.24 6 14.586 6C6.426 6 2 10.14 2 16.546C2 21.726 5.068 24.74 11.29 26.17L11.958 26.336C12.904 26.624 14.182 27.006 15.79 27.48C18.97 28.23 19.788 29.026 19.788 31.412C19.788 33.592 17.488 34.832 14.448 34.832C5.682 34.832 2 30.462 2 30.462V38.44C2 38.44 4.304 42 14.446 42Z" fill="url(#paint0_linear_28142_20003)"/>
<path d="M40.7485 41.46C43.7585 41.46 46.0005 39.314 46.0005 36.408C46.0005 33.44 43.8225 31.356 40.7485 31.356C37.7385 31.356 35.5605 33.44 35.5605 36.408C35.5605 39.376 37.7385 41.46 40.7485 41.46Z" fill="#E80000"/>
<defs>
<linearGradient id="paint0_linear_28142_20003" x1="1326.1" y1="6" x2="1326.1" y2="3606" gradientUnits="userSpaceOnUse">
<stop stop-color="#9D39FF"/>
<stop offset="1" stop-color="#A380FF"/>
</linearGradient>
</defs>
</svg>
