<svg width="179" height="180" viewBox="0 0 179 180" fill="none" xmlns="http://www.w3.org/2000/svg">
<path d="M67.5 2.55078C79.138 -0.343296 91.6402 -0.723635 103.485 1.15029C115.33 3.02422 126.678 7.25955 136.854 13.6047C147.031 19.9499 155.828 28.2754 162.724 38.0869C169.62 47.8984 174.473 58.9957 176.997 70.7196H164.5C162.315 60.5654 158.892 53.4752 152.92 44.9774C146.947 36.4795 139.328 29.2687 130.514 23.773C121.7 18.2774 111.872 14.6092 101.613 12.9861C91.3537 11.3631 77.5798 12.5443 67.5 15.0509V2.55078Z" fill="url(#paint0_linear_13708_135276)"/>
<path d="M61.906 4.55078C46.9552 9.39636 33.544 17.9533 23.0213 29.6271C12.4986 41.301 5.23544 55.5399 1.9624 70.9117L14.5 70.9118C17.336 57.5927 22.781 47.744 31.8985 37.629C41.0161 27.5141 48.9517 21.2493 61.906 17.0508V4.55078Z" fill="url(#paint1_linear_13708_135276)"/>
<path d="M1.01851 76.0869C-0.350898 85.0863 -0.339341 94.242 1.05278 103.238H13C11.7899 95.418 11.4247 83.9099 12.6151 76.0869H1.01851Z" fill="url(#paint2_linear_13708_135276)"/>
<path d="M177.949 103.224C179.344 94.2038 179.35 85.0238 177.969 76.002L166.068 76.002C167.264 83.8118 167.207 95.2426 166 103.051L177.949 103.224Z" fill="url(#paint3_linear_13708_135276)"/>
<path d="M1.99854 108.36C5.3067 123.75 12.6153 137.995 23.187 149.658C33.7588 161.321 47.2196 169.99 62.2114 174.789V162.365C49.1804 158.193 41.0493 151.934 31.8603 141.796C22.6713 131.659 16.8755 121.737 14 108.36L1.99854 108.36Z" fill="url(#paint4_linear_13708_135276)"/>
<path d="M67.8027 176.381C79.4598 179.294 91.584 179.83 103.453 177.956C115.321 176.083 126.691 171.839 136.884 165.478C147.078 159.116 155.886 150.768 162.783 140.929C169.681 131.091 174.527 119.964 177.033 108.213L164.817 108.213C162.646 118.398 158.992 125.553 153.014 134.08C147.036 142.607 139.402 149.842 130.567 155.356C121.733 160.869 111.879 164.547 101.592 166.171C91.3062 167.794 77.9059 167.075 67.8029 164.551L67.8027 176.381Z" fill="url(#paint5_linear_13708_135276)"/>
<circle cx="89.5" cy="90.5" r="68.5" fill="url(#paint6_linear_13708_135276)"/>
<path d="M76 104.5C76 101.02 76.7501 97.574 78.2075 94.3589C79.6649 91.1438 81.801 88.2224 84.4939 85.7617C87.1868 83.3009 90.3837 81.3489 93.9022 80.0172C97.4206 78.6854 101.192 78 105 78C108.808 78 112.579 78.6854 116.098 80.0172C119.616 81.3489 122.813 83.3009 125.506 85.7617C128.199 88.2224 130.335 91.1438 131.793 94.3589C133.25 97.574 134 101.02 134 104.5L105 104.5L76 104.5Z" fill="#7DBFD7"/>
<path d="M104 78C104 81.5457 103.25 85.0567 101.793 88.3325C100.335 91.6082 98.199 94.5847 95.5061 97.0919C92.8132 99.5991 89.6163 101.588 86.0978 102.945C82.5794 104.302 78.8083 105 75 105C71.1917 105 67.4206 104.302 63.9022 102.945C60.3837 101.588 57.1868 99.5991 54.4939 97.0919C51.801 94.5847 49.6649 91.6082 48.2075 88.3324C46.7501 85.0567 46 81.5457 46 78L75 78H104Z" fill="#FAFBFB"/>
<path d="M74.5001 109.5C74.5001 112.98 75.2502 116.426 76.7076 119.641C78.1649 122.856 80.3011 125.778 82.994 128.238C85.6869 130.699 88.8838 132.651 92.4022 133.983C95.9207 135.315 99.6917 136 103.5 136C107.308 136 111.079 135.315 114.598 133.983C118.116 132.651 121.313 130.699 124.006 128.238C126.699 125.778 128.835 122.856 130.293 119.641C131.75 116.426 132.5 112.98 132.5 109.5L103.5 109.5H74.5001Z" fill="#7DBFD7"/>
<path d="M102.5 136C102.5 131.898 101.496 127.85 99.5647 124.163C97.6332 120.476 94.8248 117.248 91.3529 114.723C87.8809 112.197 83.8365 110.442 79.5269 109.59C75.2173 108.737 70.7557 108.81 66.4809 109.803L66.4808 136H102.5Z" fill="#FAFBFB"/>
<path d="M60.4779 111.875C55.6651 114.127 51.621 117.582 48.7989 121.854C45.9768 126.126 43.9881 131.045 44 136.06H60.4779V111.875Z" fill="#FAFBFB"/>
<path d="M75 45.5C75 48.98 75.7501 52.426 77.2075 55.6411C78.6649 58.8562 80.801 61.7776 83.4939 64.2383C86.1868 66.6991 89.3837 68.6511 92.9022 69.9828C96.4206 71.3146 100.192 72 104 72C107.808 72 111.579 71.3146 115.098 69.9828C118.616 68.6511 121.813 66.6991 124.506 64.2383C127.199 61.7776 129.335 58.8562 130.793 55.6411C132.25 52.426 133 48.98 133 45.5L104 45.5L75 45.5Z" fill="#7DBFD7"/>
<path d="M103 72C103 68.4543 102.25 64.9433 100.793 61.6675C99.3351 58.3918 97.199 55.4153 94.5061 52.9081C91.8132 50.4009 88.6163 48.4121 85.0978 47.0553C81.5794 45.6984 77.8083 45 74 45C70.1917 45 66.4206 45.6984 62.9022 47.0553C59.3837 48.4121 56.1868 50.4009 53.4939 52.9081C50.801 55.4153 48.6649 58.3918 47.2075 61.6676C45.7501 64.9433 45 68.4543 45 72L74 72H103Z" fill="#FAFBFB"/>
<defs>
<linearGradient id="paint0_linear_13708_135276" x1="67" y1="44" x2="169" y2="45" gradientUnits="userSpaceOnUse">
<stop stop-color="#02ABC6"/>
<stop offset="1" stop-color="#3F6AA0"/>
</linearGradient>
<linearGradient id="paint1_linear_13708_135276" x1="62" y1="46.5" x2="-4" y2="47" gradientUnits="userSpaceOnUse">
<stop stop-color="#07B2C6"/>
<stop offset="1" stop-color="#24D9C6"/>
</linearGradient>
<linearGradient id="paint2_linear_13708_135276" x1="-1.35818e-07" y1="90" x2="13" y2="90" gradientUnits="userSpaceOnUse">
<stop stop-color="#27DEC6"/>
<stop offset="1" stop-color="#21D6C6"/>
</linearGradient>
<linearGradient id="paint3_linear_13708_135276" x1="166" y1="90" x2="179" y2="90" gradientUnits="userSpaceOnUse">
<stop stop-color="#D9D9D9"/>
<stop offset="0.0001" stop-color="#3E6AA1"/>
<stop offset="1" stop-color="#47649B"/>
</linearGradient>
<linearGradient id="paint4_linear_13708_135276" x1="5.5" y1="142" x2="62" y2="142" gradientUnits="userSpaceOnUse">
<stop stop-color="#63E1D2"/>
<stop offset="1" stop-color="#07B1C6"/>
</linearGradient>
<linearGradient id="paint5_linear_13708_135276" x1="68" y1="171.5" x2="177" y2="170" gradientUnits="userSpaceOnUse">
<stop stop-color="#02ABC6"/>
<stop offset="1" stop-color="#45669D"/>
</linearGradient>
<linearGradient id="paint6_linear_13708_135276" x1="21" y1="90" x2="158" y2="90" gradientUnits="userSpaceOnUse">
<stop stop-color="#1BCDC6"/>
<stop offset="1" stop-color="#3273A9"/>
</linearGradient>
</defs>
</svg>
