<svg width="32" height="32" viewBox="0 0 32 32" fill="none" xmlns="http://www.w3.org/2000/svg">
<path d="M27.8572 6.67484C31.9623 8.07418 32.1184 8.84726 31.9214 9.61476C30.9774 12.9728 8.22365 7.08925 4.87861 28.2429L4.49579 14.8405L8.71054 4.24039C13.4252 0.402883 22.5497 -0.191792 27.8572 6.67484Z" fill="#005AFF"/>
<path d="M8.75705 3.66796C14.2355 3.31116 18.913 4.95209 20.5836 6.31612C20.9033 6.57815 20.8178 7.04831 20.4443 7.22486C13.3435 9.6147 4.5869 17.4421 4.90468 29.802C4.92512 30.6086 3.83984 30.891 3.45888 30.1793C0.355421 24.3831 -0.0218248 18.1241 1.25301 14.1249C2.60775 10.3915 1.5299 8.9457 0.115694 7.2899C-0.599774 6.09683 3.01845 4.2329 8.75705 3.66796Z" fill="#37DBFF"/>
<path d="M22.1762 17.1708C21.5016 16.2862 20.4777 15.6618 19.2512 15.5336C17.311 15.3291 15.4341 16.5315 14.8134 18.3824C14.4269 19.5327 14.557 20.7017 15.0569 21.6717C15.3263 22.1958 16.0641 22.2199 16.3837 21.7238C17.5619 19.8988 19.4983 18.6742 21.6577 18.3936C22.2431 18.3174 22.5367 17.6391 22.1781 17.1708H22.1762Z" fill="#005AFF"/>
</svg>
