<svg width="48" height="21" viewBox="0 0 48 21" fill="none" xmlns="http://www.w3.org/2000/svg">
<path fill-rule="evenodd" clip-rule="evenodd" d="M24.906 21.0001C18.4834 20.9138 13.1911 20.2972 8.13213 18.3711C5.81901 17.491 3.65637 16.3656 1.89849 14.6043C-0.549936 12.1502 -0.639755 9.14873 1.68503 6.60265C3.16295 4.98439 5.04098 3.92825 7.04148 3.05496C10.1548 1.69675 13.4384 0.935879 16.8037 0.479357C20.5621 -0.0305394 24.3368 -0.13956 28.1162 0.180687C33.0924 0.602004 37.9344 1.54685 42.3833 3.8851C43.6594 4.55512 44.8189 5.38072 45.8326 6.40165C48.2402 8.82507 48.3358 11.8174 46.0472 14.3476C44.6335 15.9125 42.8348 16.9539 40.9136 17.8147C37.6906 19.2569 34.2845 20.0859 30.7781 20.5016C29.0993 20.7007 27.4105 20.8197 26.126 20.9103L26.1259 20.9103L26.1257 20.9103C25.6592 20.9432 25.246 20.9723 24.906 21.0001ZM23.7104 18.6698C27.0652 18.6358 30.2543 18.3893 33.4003 17.7545C36.1345 17.2037 38.7964 16.4372 41.2285 15.0551C42.3017 14.4453 43.2897 13.731 44.0211 12.7362C45.1572 11.1917 45.1479 9.55074 43.8892 8.09714C43.306 7.42371 42.5945 6.82524 41.8514 6.31761C40.2487 5.22287 38.436 4.52446 36.5615 4.00434C29.0634 1.92728 21.4918 1.82053 13.8817 3.32183C11.144 3.86125 8.50074 4.6948 6.1048 6.14386C5.0923 6.75596 4.18478 7.48731 3.52689 8.46622C2.63221 9.79717 2.59255 11.1792 3.52806 12.475C4.03081 13.1723 4.68287 13.8003 5.37342 14.3306C6.83035 15.448 8.53457 16.134 10.2819 16.7052C14.6854 18.1463 19.2393 18.6017 23.7104 18.6698ZM29.9908 13.4244V10.1413C30.2858 10.1413 30.5741 10.142 30.8577 10.1428H30.858C31.4918 10.1445 32.1026 10.1461 32.7134 10.139C33.5229 10.1288 33.6512 9.92664 33.3363 9.04766H29.2618V7.52138C29.6912 7.52138 30.1178 7.51518 30.5419 7.509C31.5464 7.49439 32.5375 7.47997 33.5217 7.54864C34.3429 7.60542 34.7757 8.2743 34.8749 9.03971C35.0008 10.0164 35.0008 10.9907 34.0817 11.7243C34.341 12.1011 34.5945 12.4702 34.8567 12.8521C35.0497 13.1332 35.2475 13.4212 35.4558 13.7242H33.8973C33.5194 13.1995 33.0866 12.5976 32.6539 11.9946C32.4019 11.6437 32.1068 11.4404 31.6076 11.73C31.5597 12.3512 31.5096 13.0042 31.4547 13.7208H28.1688C27.8878 13.3386 27.5951 12.9412 27.297 12.5368L27.2963 12.5358C27.0402 12.1883 26.7803 11.8355 26.5206 11.4824L26.5175 11.4782C25.9586 10.7188 25.4006 9.96051 24.6915 9.23845V13.7321H23.1133V9.07151H21.1139V13.7355H17.7685C16.6405 12.199 15.5044 10.6523 14.3682 9.10558C14.3527 9.10962 14.3372 9.11372 14.3216 9.11785C14.3043 9.12244 14.287 9.12707 14.2697 9.1317C14.2367 9.1405 14.2038 9.1493 14.1711 9.15782V13.723C14.0615 13.7329 13.9657 13.7433 13.8788 13.7527H13.8788C13.715 13.7704 13.5828 13.7848 13.4502 13.7855C11.8475 13.79 10.2459 13.7934 8.64317 13.7855C7.6715 13.781 7.29939 13.4369 7.28539 12.5045C7.2679 11.2303 7.26906 9.95503 7.28539 8.68086C7.29473 7.95746 7.59218 7.54069 8.2524 7.51003C9.11219 7.47017 9.97429 7.47843 10.8572 7.4869H10.8573C11.2321 7.4905 11.6107 7.49413 11.9945 7.49413V9.00565H8.91962V12.2092H12.5392C12.5448 12.1205 12.5517 12.0305 12.5588 11.9397L12.5588 11.9396C12.5739 11.7445 12.5893 11.5453 12.5917 11.3462C12.5955 10.9699 12.5948 10.5933 12.594 10.2167V10.2167V10.2165C12.5932 9.77723 12.5924 9.3379 12.5987 8.8989C12.6069 8.322 12.6698 7.75646 13.3534 7.5282C14.0276 7.30334 14.9736 7.50889 15.3772 8.00857C15.6946 8.402 15.9908 8.81164 16.2871 9.22141L16.2871 9.22147C16.4133 9.39597 16.5395 9.57049 16.6673 9.7438L17.4096 10.7501L17.4104 10.7513C18.049 11.6173 18.6876 12.4834 19.3281 13.3483C19.3454 13.3722 19.373 13.3887 19.4161 13.4144L19.4161 13.4144C19.4427 13.4303 19.4751 13.4498 19.5147 13.4766V9.04653H17.3182V7.51457C17.4072 7.5075 17.4951 7.4989 17.5823 7.49036C17.7753 7.47146 17.965 7.45289 18.1546 7.45211C18.8335 7.44949 19.5124 7.44977 20.1913 7.45005C20.9833 7.45038 21.7753 7.45071 22.5674 7.44643C22.7955 7.4452 23.0211 7.46706 23.2472 7.48897C23.6452 7.52755 24.0448 7.56628 24.4629 7.47936C25.087 7.35104 25.5862 7.67469 25.9735 8.22433C26.8175 9.42326 27.6912 10.6032 28.5649 11.783C28.8406 12.1554 29.1164 12.5278 29.3913 12.9008C29.4907 13.036 29.6007 13.1646 29.7105 13.2931C29.7604 13.3515 29.8102 13.4098 29.859 13.4687L29.8909 13.4578C29.9253 13.446 29.9577 13.4348 29.9908 13.4244ZM40.3864 9.00111V7.45098C40.031 7.45098 39.6803 7.44879 39.3329 7.44662C38.5619 7.4418 37.8073 7.43709 37.0538 7.45666C36.0856 7.48278 35.6855 7.89615 35.6669 8.84667C35.6529 9.53101 35.6558 10.2159 35.6586 10.901C35.6598 11.1845 35.661 11.4681 35.661 11.7516C35.661 13.7026 35.745 13.7855 37.7339 13.7855H40.3841V12.266H37.2288V9.00111H40.3864Z" fill="#CCE2FB"/>
</svg>
